PathFileType	3	(X/Y/Z)	D:\Jess\PFP\Labelled\PA23\20251014\SRRun01.trc
DataRate	CameraRate	NumFrames	NumMarkers	Units	OrigDataRate	OrigDataStartFrame	OrigNumFrames
250.0	250.0	6	37	mm	250.0	36563	2501
Frame#	Time	C7			T10			CLAV			LSHO			RSHO			LASIS			RASIS			LPSIS			RPSIS			LILCR			RILCR			LGTR			LTHI			LLTHI			LLEP			LMEP			LPSH			LLSH			LDSH			LLMAL			LMMAL			LTOE			L5TH			LHEE			RGTR			RTHI			RLTHI			RLEP			RMEP			RPSH			RLSH			RDSH			RLMAL			RMMAL			RTOE			R5TH			RHEE			
		X1	Y1	Z1	X2	Y2	Z2	X3	Y3	Z3	X4	Y4	Z4	X5	Y5	Z5	X6	Y6	Z6	X7	Y7	Z7	X8	Y8	Z8	X9	Y9	Z9	X10	Y10	Z10	X11	Y11	Z11	X12	Y12	Z12	X13	Y13	Z13	X14	Y14	Z14	X15	Y15	Z15	X16	Y16	Z16	X17	Y17	Z17	X18	Y18	Z18	X19	Y19	Z19	X20	Y20	Z20	X21	Y21	Z21	X22	Y22	Z22	X23	Y23	Z23	X24	Y24	Z24	X25	Y25	Z25	X26	Y26	Z26	X27	Y27	Z27	X28	Y28	Z28	X29	Y29	Z29	X30	Y30	Z30	X31	Y31	Z31	X32	Y32	Z32	X33	Y33	Z33	X34	Y34	Z34	X35	Y35	Z35	X36	Y36	Z36	X37	Y37	Z37	

1564	146.248	843.3231892755067	1624.866446003555	-855.6394532617484	850.3071854472356	1372.833044417042	-775.7119672827249	834.1375647796226	1492.142447613269	-1009.876558164649	653.0314538967168	1576.918442907291	-915.6927799386444	1006.625144770991	1586.744600119908	-917.7592057647446	696.3567069378043	1105.566800275864	-947.4155676277679	957.793919723641	1067.174626287474	-977.8414401620996	824.2018009046368	1121.115285337423	-779.1663846193945	875.1037577239409	1109.157913673331	-783.6059327754132	681.529748379275	1182.272101019077	-864.7718304949508	1002.509995030752	1151.453198980251	-905.7221851944666	646.5841694780477	961.5177820240071	-891.3474415102803	738.0131229405931	815.1850493699426	-1036.802725476547	713.4605747271145	667.9014389924534	-985.4105093786934	748.4223641416869	531.4786113318327	-998.8523128657619	nan	nan	nan	814.6255739448782	417.8406543425017	-1015.406366586621	755.3710958470317	334.5102036969056	-907.6221389659945	838.273585052322	215.4897532437656	-886.4564751834603	802.5613541375856	117.9972696903703	-777.2709685739437	nan	nan	nan	807.5199241066999	68.54553924331638	-936.3333581013641	762.1292027661618	52.33904680937261	-887.0069516146946	856.595724742954	86.88410143292579	-691.4247569445854	1015.22506033756	909.7613027601392	-898.1871598972789	957.4465489641982	774.0543629005329	-1056.210657134854	1018.053236429269	655.522593833177	-972.2854897580437	1012.595923789972	522.5912120922117	-1000.231666716851	nan	nan	nan	973.2007954257673	432.0841551475305	-926.6114110786108	1024.160473560535	514.1724924641608	-782.574827312155	976.8566194105773	434.9782237334556	-681.4748127474625	1006.146310927533	481.7686037149321	-544.6346901783858	nan	nan	nan	1035.358833494594	312.7208331422985	-499.6357462285931	1070.011923102916	367.6256364836344	-470.5614710441145	936.44495432034	545.8644303068165	-488.7980262329477	
1565	146.252	842.6704186080245	1625.754532688668	-855.4699418719119	849.475141639081	1373.782771699564	-775.5011151279573	834.9493726139149	1493.132739654672	-1009.797549016973	653.1526912282345	1577.853281155999	-917.2603699257442	1006.513482178465	1587.917594667403	-916.0800358787179	696.5441081507789	1105.821353713322	-946.821854389277	958.2207123940407	1068.594007356939	-976.7568896883593	823.8518574545807	1122.377042633275	-778.4050128660144	874.8263798947096	1110.639386440429	-782.7456630831207	681.8368231829058	1183.503749124322	-864.3320341335481	1002.479204791785	1153.144289903086	-904.5683051523276	646.9711590779772	961.418064362728	-888.9261212723671	737.498090950956	812.8840524601027	-1032.330392868427	712.9824461341217	666.207757699128	-978.7664270289974	747.5952045011868	529.0277389209053	-990.0603886224161	nan	nan	nan	813.5561529860574	415.2449135925465	-1005.934812866249	755.0427495355902	333.0434163725345	-897.3569110719001	837.9049483232187	214.6435808497623	-875.3015692317674	802.4350402391636	117.9188989953264	-765.2871348539912	nan	nan	nan	807.2578166132887	67.83402632048343	-924.1917713355156	761.9217106966656	52.0773339338695	-874.7263826343964	856.5775622820723	87.20416849764531	-679.330594369308	1015.663756725452	911.3087496983471	-896.4522694353172	957.9093809915079	777.6475553576206	-1058.159285672504	1018.373942756289	658.0855104804316	-976.7158332375925	1012.732658441709	525.6745156779201	-1007.445803493574	nan	nan	nan	973.1207261901326	434.242076204495	-935.2341514675918	1024.012690866933	514.1460279239947	-790.1457972551992	976.172579922806	433.5622369523195	-689.9309779595528	1005.552555794112	478.2312133978994	-552.2798714457344	nan	nan	nan	1033.466246077963	307.94051374562	-510.5008619513644	1068.588481108308	361.9760672497891	-480.3415081607143	936.383629165942	541.6461173027793	-495.1573526579269	
1566	146.256	842.0269797795082	1626.903761999576	-855.3061158834719	848.6046883700166	1374.95763450121	-775.3789642327729	835.8149978870372	1494.439940431067	-1009.74201931231	653.3094783817472	1579.095371389586	-918.8579307505789	1006.413293323421	1589.379179734684	-914.3417834929915	696.7172106105272	1106.266164364652	-946.3338660550007	958.6267860143136	1070.254147126704	-975.7603712261018	823.4639719001	1123.859378583513	-777.7420302499975	874.5225719889913	1112.367932182567	-781.9710531026318	682.1137014370834	1184.930525187542	-864.1281842812966	1002.42832196683	1155.024917681112	-903.5375285907413	647.3633575693041	961.4776235994836	-886.4729242023085	736.8765327959809	810.6849973633538	-1027.749518526247	712.5801597951004	664.716617613911	-971.8815886440931	746.8322945549173	526.8983012818823	-981.0609963501848	nan	nan	nan	812.5910100148196	412.9582125694383	-996.2495470225524	754.7274215461956	331.8515543649711	-886.9386926754822	837.5446104404316	213.9684377014548	-864.0677909496331	802.3138937175617	117.9090119216798	-753.3086235880346	nan	nan	nan	807.0136208149895	67.15469007198736	-912.0506849314847	761.7311473084258	51.84876511400469	-862.4367072726492	856.5648796660794	87.59346133316609	-667.2505461146092	1016.106407607523	913.1801659244589	-894.8170864483429	958.4358596382208	781.6091088136402	-1059.995103348956	1018.58264752182	660.9743202857312	-981.0183589064251	1012.757269584684	529.1626423352801	-1014.47791916458	nan	nan	nan	972.9730896449126	436.7166195698182	-943.7947917283268	1023.834588658978	514.1773225916363	-797.5496356322419	975.4584817965687	432.0882306056687	-698.3697858489701	1004.96152129298	474.3723794728476	-559.8626240641687	nan	nan	nan	1031.440730518635	302.8377705517538	-521.5293104703732	1067.046358976636	355.9056411351202	-490.2005841740369	936.3606537425526	537.0516224860006	-501.4187288287612	
1567	146.26	841.3965625830735	1628.309368625065	-855.1479864583656	847.6952843926972	1376.353568267682	-775.3451710440995	836.7300711924032	1496.056401299455	-1009.709011052342	653.4995119724479	1580.64162704165	-920.4757953607865	1006.322880033433	1591.117611082968	-912.5551689283425	696.8652011721841	1106.882913215248	-945.949243651472	958.9991188552182	1072.131665266692	-974.8596719719258	823.0449317174051	1125.553875701852	-777.1830928425687	874.199236102244	1114.33308217357	-781.2871103954361	682.3485949032636	1186.518563376855	-864.1600428966517	1002.36182899146	1157.065553555048	-902.62732524816	647.7561557204281	961.6994303058577	-883.9978606098965	736.1718672866109	808.6125276843317	-1023.07223948696	712.2691226247103	663.4543649298492	-964.7684451783231	746.1513944692786	525.1282844192831	-971.8703442737132	nan	nan	nan	811.7446624456145	411.0107451081685	-986.3664291564903	754.4296080454649	330.9614260391534	-876.3755996782237	837.1963426920397	213.4818726751485	-852.7623036656655	802.1958611676946	117.9848151501265	-741.3417418551543	nan	nan	nan	806.7894152377272	66.52417477405447	-899.9134112977364	761.5603082067295	51.65887050363725	-850.1425416262759	856.5528430703762	88.0696124882264	-655.1915360408227	1016.558457496125	915.3614163759485	-893.3230724230087	959.0273741911614	785.9202820599801	-1061.722266430822	1018.684342444099	664.1741757334452	-985.1854666117011	1012.671733936458	533.0396374350835	-1021.30692352437	nan	nan	nan	972.758566266048	439.4934965760073	-952.2704848266941	1023.62046984792	514.2584239139891	-804.7741833067411	974.7141438869162	430.555006780692	-706.7883657062183	1004.36328826586	470.1958028237287	-567.3970479051375	nan	nan	nan	1029.298339885986	297.4434879619704	-532.7383319404988	1065.396320736895	349.4442203013466	-500.1690164039878	936.3618401145508	532.0739707118951	-507.5946867971786	
1568	146.264	840.7825238906048	1629.96455825455	-854.9949280065679	846.7461491552342	1377.965109240366	-775.3986586410982	837.689743565207	1497.973125039265	-1009.697093951906	653.7209877030512	1582.487157259821	-922.1045110307086	1006.239525194036	1593.120308736704	-910.7311167613628	696.9795595649547	1107.654571247147	-945.6663135071897	959.326891320086	1074.207576520871	-974.0613372844709	822.5999103544334	1127.452967041731	-776.7329829017826	873.8620381978122	1116.525596413558	-780.6982325772855	682.531694379844	1188.238006329811	-864.4269472540869	1002.283423351265	1159.245138346619	-901.8340290171732	648.146133646847	962.0867262154271	-881.5145746259925	735.4143096835148	806.6929381085987	-1018.311715675468	712.0618148744536	662.446610824293	-957.4419388193586	745.5665852455044	523.747755907992	-962.502124857682	nan	nan	nan	811.0275505449146	409.4258129787517	-976.3002041448927	754.153385770136	330.3932330374593	-865.6764745910535	836.8636225042728	213.1996668937887	-841.3925105856364	802.0782159152212	118.1633883118417	-729.3930361256972	nan	nan	nan	806.5867797583721	65.95700173916752	-887.7831687045741	761.4116082158439	51.51153487405129	-837.8484309329076	856.5360470582624	88.65233197805078	-643.1603712507344	1017.025850989769	917.8396156185763	-892.0075505206837	959.6806525188596	790.5581681733086	-1063.346890509252	1018.686363999354	667.6692287666457	-989.2121799008773	1012.478747729355	537.2851631471339	-1027.913796297407	nan	nan	nan	972.4775894164768	442.5546751945089	-960.6386659121174	1023.364096996601	514.3791864566005	-811.809988494595	973.9383273995619	428.9604313936801	-715.1846102837286	1003.748101046795	465.7066734772681	-574.8994350289554	nan	nan	nan	1027.05477066985	291.7900895943562	-544.1466934688049	1063.649097324741	342.623468217768	-510.2789184803736	936.3735571835082	526.7077843401889	-513.7000327848078	
1569	146.268	840.1878367602227	1631.860628797512	-854.8458635072757	845.7563413734424	1379.785379771835	-775.5377186480956	838.6888318589888	1500.179668605545	-1009.704482970451	653.9724650914465	1584.625161213843	-923.7351956375765	1006.159782092206	1595.373858924018	-908.8805255898731	697.0544243387578	1108.565985141283	-945.4841135088533	959.6018351199435	1076.467530641411	-973.3705339107941	822.1324610748319	1129.549759090869	-776.3954538553415	873.515332862156	1118.937203693612	-780.2080656609157	682.6554456829148	1190.063759632529	-864.9281287898809	1002.195814442017	1161.551460958928	-901.1535503090294	648.5311066829213	962.6427860227843	-879.0399880865175	734.639529743216	804.9531880195408	-1013.482244601468	711.9672794501048	661.7175525439749	-949.9202725488743	745.0879183482995	522.778715915245	-952.9688348975636	nan	nan	nan	810.4461734326853	408.220138949417	-966.0651753370289	753.9022138719866	330.1609439376332	-854.8517581506969	836.5495827777534	213.1359875697157	-829.9666286483288	801.957683968399	118.4618890146341	-717.4695671931674	nan	nan	nan	806.4068128160635	65.46512394972453	-875.6631546122868	761.286983047698	51.4091007085495	-825.5589427305857	856.5087003710223	89.3634137321873	-631.163921929836	1017.514397276867	920.6031272769827	-890.9025642695334	960.3880695034812	795.4962448450528	-1064.876732491584	1018.598024458887	671.4427295138444	-993.0960456570813	1012.181734145847	541.8744984166593	-1034.281732212804	nan	nan	nan	972.1303927954656	445.8786606988228	-968.8774805394804	1023.059006225244	514.5274218885282	-818.6506001025667	973.1288930764282	427.3015608069132	-723.5571900039273	1003.106675729366	460.9116915422377	-582.38782253393	nan	nan	nan	1024.725343732547	285.9111494860687	-555.7737908647341	1061.815268576115	335.4766167726609	-520.5629344665655	936.382788272299	520.9495458140725	-519.7517312700951	
